<svg xmlns="http://www.w3.org/2000/svg" width="939" height="1280" viewBox="0 0 939 1280" fill="none">
  <path d="M43.9891 1234.66C50.5661 1228.5 60.6229 1218.78 75.6522 1204C102.53 1177.58 144.477 1135.81 209.1 1071.27L238.207 1042.2L238.215 1042.19L439.281 841.389L469.677 811.034L500.062 841.399L700.978 1042.18C813.892 1154.89 864.257 1205.58 889.249 1228.52C891.644 1230.72 893.662 1232.52 895.342 1233.99L895.733 675.118C895.867 465.585 895.867 321.767 895.7 229.359C895.617 183.143 895.492 149.863 895.322 127.678C895.237 116.568 895.141 108.361 895.037 102.751C894.966 98.9275 894.895 97.0979 894.885 96.5303C890.578 70.8371 869.507 49.4373 843.763 44.7178C843.751 44.7174 843.739 44.7162 843.727 44.7158C842.247 44.6626 840.033 44.6046 837.025 44.5459C831.049 44.4292 822.569 44.3199 811.861 44.2197C790.479 44.0196 760.653 43.8591 725.15 43.7373C654.168 43.4938 560.751 43.4065 467.377 43.4648C374.002 43.5232 280.729 43.7272 210.033 44.0664C174.673 44.2361 145.031 44.4391 123.87 44.6738C113.27 44.7914 104.921 44.916 99.0878 45.0449C96.6032 45.0998 94.7066 45.1565 93.3505 45.2051C68.3857 50.7808 48.6296 71.6363 44.4471 96.666C44.4375 97.2214 44.3671 99.0522 44.2958 102.903C44.1913 108.544 44.0966 116.799 44.0116 127.968C43.8418 150.27 43.717 183.709 43.6337 230.059C43.4671 322.733 43.4662 466.718 43.5995 675.785L43.9891 1234.66Z"
    stroke="#00FF26" stroke-width="86" stroke-linecap="round" stroke-linejoin="round" />
</svg>
